<svg xmlns="http://www.w3.org/2000/svg" width="33.78" height="21.979" viewBox="0 0 33.78 21.979"><defs><style>.cls-1{fill:#707070;stroke:transparent}</style></defs><path id="Path_4062" d="M197.766 255.941c-.128-.651-1.257-6.393-1.536-7.231a15.563 15.563 0 0 0-4.313-6.138 9.109 9.109 0 0 0-6-2.571h-16.55a1.557 1.557 0 0 0-1.555 1.555v2.168h-1.146a.761.761 0 0 0 0 1.522h1.146v1.1h-2.051a.761.761 0 0 0 0 1.522h2.051v8.22a1.556 1.556 0 0 0 1.555 1.555h1.9a3.921 3.921 0 0 0 7.754 0H186a3.921 3.921 0 0 0 7.754 0h2.469a1.557 1.557 0 0 0 1.556-1.555.723.723 0 0 0-.014-.147Zm-3.068-7h-7.841v-7.7c2.778.747 6.629 4.442 7.841 7.7Zm-19.555 10.512a2.4 2.4 0 1 1 2.4-2.4 2.4 2.4 0 0 1-2.4 2.4Zm14.737 0a2.4 2.4 0 1 1 2.4-2.4 2.4 2.4 0 0 1-2.4 2.4Zm6.308-3.335h-2.5a3.921 3.921 0 0 0-7.615 0h-7.12a3.92 3.92 0 0 0-7.615 0h-1.968a.033.033 0 0 1-.033-.034v-7.646h9.327a.761.761 0 1 0 0-1.522h-9.327V245.1h4.293a.761.761 0 1 0 0-1.522h-4.293v-2.444a.032.032 0 0 1 .033-.033h15.967v8.6a.761.761 0 0 0 .761.761h9c.324 1.479.77 3.852 1.149 5.608.007.034-.014.047-.054.047Zm0 0" class="cls-1" data-name="Path 4062" transform="translate(-164.5 -239.5)"/></svg>