<svg width="146" height="57" viewBox="0 0 146 57" fill="none" xmlns="http://www.w3.org/2000/svg">
<path d="M11.9866 21.5109C11.6063 21.2764 10.701 20.4954 9.99454 19.2432C9.89046 19.0587 9.78444 18.8512 9.68468 18.6199C9.48827 18.1644 9.31511 17.6133 9.23818 16.9793C9.1762 16.4677 9.17706 15.8983 9.28755 15.3037C9.38393 14.7862 9.56559 14.2389 9.87068 13.7017C10.147 13.2153 10.5326 12.7231 11.0632 12.2733C11.9977 11.4812 13.4466 10.7695 15.6266 10.563C17.586 10.995 19.0931 11.9184 20.1699 13.173C21.1872 14.3581 21.8174 15.8386 22.0601 17.4278C22.2911 18.9405 22.1638 20.5227 21.7011 21.9149C21.477 22.5895 21.1764 23.2115 20.8072 23.7491C20.4457 24.2757 20.0192 24.7201 19.5352 25.0542C16.5861 26.8628 14.0505 27.6096 11.8974 27.6938C9.76894 27.777 8.01102 27.2128 6.58984 26.3858C5.16941 25.5592 4.08791 24.4711 3.32185 23.5144C2.93795 23.035 2.635 22.5907 2.40994 22.2325C2.19505 21.8906 2.0509 21.6267 1.97505 21.4855C1.02624 18.9975 0.849077 16.4753 1.21275 14.1108C1.58972 11.6597 2.5478 9.37378 3.84628 7.44431C5.20247 5.42909 6.91445 3.8216 8.73702 2.75674C10.6765 1.62355 12.7067 1.12006 14.6316 1.28738C17.4111 1.45186 19.6775 2.09136 21.5966 3.12183C23.4067 4.09372 24.874 5.39326 26.1986 6.92978C27.4821 8.41864 28.5691 10.0509 29.7455 11.7924C30.8663 13.4518 32.0544 15.188 33.4721 16.7387C33.9596 17.258 34.4376 17.8152 34.9588 18.3509C35.4747 18.8811 36.0394 19.3951 36.6912 19.7989C37.3493 20.2065 38.0878 20.4968 38.9466 20.5912C39.8135 20.6863 40.7755 20.5785 41.8657 20.2257C41.8971 20.2155 41.932 20.2 41.9691 20.1797C42.3356 19.979 42.64 19.6914 42.8864 19.3523C43.1348 19.0103 43.3223 18.6187 43.4599 18.2111C43.5999 17.7964 43.691 17.3576 43.7425 16.9193C43.795 16.4715 43.8072 16.0172 43.7858 15.5763C43.7414 14.6639 43.5524 13.7805 43.2472 13.0659C43.0862 12.6888 42.8872 12.3451 42.6481 12.0627C42.4119 11.7836 42.1326 11.5602 41.8127 11.4316C41.5185 11.2646 41.2158 11.1689 40.9225 11.1266C40.5918 11.0787 40.27 11.0985 39.9736 11.1635C39.6534 11.2339 39.3576 11.3581 39.0969 11.5163C38.8088 11.6914 38.5612 11.9093 38.3601 12.1515C38.1287 12.4302 37.9618 12.7368 37.8555 13.0488C37.7234 13.4366 37.692 13.8103 37.7198 14.1358C37.7347 14.2998 37.7628 14.4491 37.7995 14.5812C37.8683 14.8289 37.9733 15.0355 38.0849 15.2017C38.3861 15.6498 38.7976 15.8787 38.9587 16.0016C38.8542 15.7741 38.7465 15.3197 38.7183 14.8698C38.7077 14.7076 38.7077 14.5506 38.7199 14.3956C38.7263 14.3134 38.7348 14.2306 38.7519 14.1471C38.7831 13.9841 38.8374 13.82 38.9278 13.6578C39.0009 13.5264 39.1016 13.3896 39.2379 13.2601C39.3574 13.1464 39.5046 13.0384 39.679 12.9504C39.837 12.8707 40.0146 12.8089 40.2039 12.7775C40.3794 12.7484 40.5614 12.7457 40.7403 12.777C40.9083 12.8064 41.0714 12.8651 41.2231 12.9587C41.2553 12.9785 41.2938 12.997 41.3375 13.0136C41.4264 13.0475 41.529 13.1169 41.6452 13.254C41.7583 13.3874 41.8756 13.5766 41.985 13.8278C42.1947 14.3089 42.3507 14.9625 42.3957 15.6827C42.4171 16.0251 42.4128 16.3727 42.3786 16.7087C42.3457 17.0383 42.2853 17.3504 42.1975 17.6306C42.1111 17.9061 42.0004 18.144 41.8682 18.3378C41.7483 18.5134 41.6089 18.6556 41.4468 18.7602C40.513 19.0747 39.7275 19.1705 39.0484 19.1162C38.3637 19.0613 37.7721 18.8529 37.2292 18.5407C36.6832 18.2267 36.1848 17.8071 35.6884 17.3267C35.1907 16.845 34.7027 16.3088 34.1883 15.7907C32.8337 14.3381 31.6776 12.6854 30.5406 11.0326C29.361 9.31792 28.2239 7.63714 26.8803 6.10007C25.4821 4.50058 23.9186 3.12824 21.9859 2.10065C19.9392 1.01246 17.5543 0.353401 14.6893 0.183937C12.5919 0.00149202 10.3961 0.549212 8.32014 1.7512C6.37023 2.88018 4.54011 4.58217 3.08386 6.72019C1.68777 8.76985 0.636862 11.2195 0.208622 13.8892C-0.20812 16.4872 -0.0299918 19.285 1.01116 22.0474C1.01561 22.0595 1.0251 22.0813 1.0377 22.1084C1.1172 22.2794 1.27571 22.5936 1.5174 22.9983C1.75766 23.4005 2.08184 23.8949 2.49407 24.4275C3.31563 25.4887 4.49151 26.7079 6.05797 27.6472C7.63296 28.5915 9.58458 29.2407 11.9331 29.1728C14.3089 29.104 17.0411 28.3031 20.1482 26.4187C20.154 26.4152 20.1622 26.41 20.1721 26.4035C20.8137 25.9771 21.3703 25.41 21.834 24.7519C22.304 24.0849 22.6799 23.3232 22.9586 22.5111C23.5315 20.8412 23.6975 18.9539 23.4324 17.141C23.1526 15.2276 22.3983 13.4235 21.1655 11.979C19.8397 10.4254 18.0263 9.35929 15.7877 8.89141C15.7288 8.87926 15.6693 8.87587 15.6107 8.8813C13.1661 9.10145 11.4316 9.9179 10.2497 10.9505C9.59048 11.5266 9.09854 12.1734 8.74439 12.8349C8.35362 13.5649 8.13074 14.3117 8.02775 15.0161C7.90978 15.8234 7.94763 16.5795 8.06923 17.2374C8.2199 18.0523 8.50011 18.7286 8.80048 19.2506C8.95372 19.517 9.11399 19.7464 9.27001 19.9409C10.3449 21.281 11.6243 21.4316 11.9866 21.5109Z" fill="#F36A26"/>
<path d="M40.6149 37.1503C38.8382 38.9702 36.0304 41.3367 32.7963 42.5196C31.3434 43.0509 30.0454 43.2601 28.8857 43.2931C28.1155 43.3159 27.3595 43.2564 26.6183 43.1081C24.8975 42.7642 23.2916 41.9425 21.8762 40.6344C20.4871 39.3506 19.3598 37.6657 18.5852 35.7728C17.8105 33.88 17.3751 31.7461 17.3258 29.5909C17.2756 27.3913 17.6276 25.3111 18.2974 23.4534C18.5852 22.6552 18.928 21.9068 19.3167 21.2036C19.9016 20.1458 20.6407 19.0821 21.6251 18.0852C23.8239 15.8586 26.461 14.7911 28.3342 14.3247C26.5023 14.4803 23.5658 14.8794 20.8376 16.7571C19.5887 17.6167 18.5566 18.6705 17.755 19.8427C17.2228 20.6209 16.7626 21.488 16.3864 22.4329C15.5071 24.6417 15.1398 27.1408 15.2607 29.6951C15.3789 32.1948 15.9564 34.6146 16.8401 36.774C17.7232 38.9318 18.9629 40.9532 20.5784 42.5392C22.2334 44.164 24.1845 45.231 26.3103 45.5633C27.2173 45.705 28.1289 45.7086 29.0302 45.5836C30.3866 45.3938 31.8252 44.8864 33.3059 44.0269C36.5414 42.1488 39.0632 39.1313 40.6149 37.1503Z" fill="#F36A26"/>
<path d="M31.5603 56.3643C31.4564 59.9861 31.8313 46.7901 31.7276 50.4119C31.8424 46.2749 32.0693 38.001 32.2834 29.4939C32.4449 23.0766 32.6085 16.1504 32.7052 10.8653C32.7518 8.32352 32.7827 6.1585 32.7906 4.60949C32.7949 3.84185 32.7928 3.22145 32.7842 2.77905C32.78 2.55916 32.7736 2.37515 32.765 2.2355C32.7607 2.16667 32.7543 2.09785 32.7479 2.03611C32.7436 2.00549 32.7372 1.96652 32.7287 1.92477C32.7244 1.90453 32.718 1.87593 32.7073 1.84506C32.6988 1.81621 32.6829 1.76965 32.6571 1.71752C32.5818 1.5662 32.4823 1.42245 32.3792 1.29463C32.2717 1.16128 32.148 1.0299 32.0167 0.906895C31.7356 0.643501 31.4113 0.410076 31.0874 0.248279C31.0703 0.240688 31.0538 0.230561 31.0369 0.22297C30.8858 0.150852 30.7196 0.0873323 30.5454 0.0465922C30.3636 0.00408072 30.1613 -0.0159021 29.9536 0.0149694C29.7508 0.0453347 29.5402 0.125033 29.3461 0.281389C29.1546 0.435493 29.001 0.646917 28.8887 0.904617C28.8611 0.967878 28.8447 1.02658 28.8348 1.06605C28.8241 1.10856 28.8156 1.15008 28.8102 1.18677C28.7974 1.2599 28.7889 1.33986 28.7816 1.42083C28.7666 1.58329 28.7562 1.78904 28.7481 2.02844C28.731 2.50976 28.7256 3.16671 28.7267 3.96757C28.731 5.58432 28.7682 7.80863 28.8278 10.4049C28.9522 15.8004 29.1737 22.8132 29.3947 29.2998C29.6877 37.8956 30.0025 46.2268 30.1619 50.3903C30.2481 52.6382 30.3085 54.1248 30.3945 56.3727L31.5603 56.3643ZM31.56 56.3083C31.6527 58.6376 31.4202 52.6576 31.3275 50.3284C31.1681 46.1658 30.8534 37.8372 30.5606 29.2447C30.3395 22.7594 30.1182 15.7538 29.9941 10.3679C29.9342 7.7746 29.8973 5.56243 29.8934 3.9641C29.8915 3.16972 29.8977 2.53559 29.9127 2.08391C29.9212 1.85718 29.9297 1.6863 29.9406 1.56841C29.947 1.50894 29.9513 1.47276 29.9535 1.45454C29.955 1.44442 29.955 1.44695 29.9526 1.4569C29.9511 1.46196 29.9441 1.49485 29.9244 1.53787C29.9558 1.466 29.9847 1.43639 30.002 1.42222C30.0212 1.40704 30.0501 1.39136 30.1001 1.38377C30.1546 1.37618 30.2281 1.3787 30.321 1.39894C30.4086 1.41918 30.5039 1.45435 30.6027 1.50142C30.6134 1.50648 30.6243 1.51155 30.6354 1.51661C30.8527 1.62517 31.0872 1.79163 31.2947 1.98605C31.3902 2.07563 31.4725 2.16421 31.5374 2.24457C31.6035 2.32656 31.6394 2.38501 31.6539 2.41437C31.6306 2.36755 31.6178 2.32833 31.6118 2.30834C31.6054 2.28557 31.6011 2.26911 31.5989 2.25975C31.5947 2.2395 31.5947 2.23951 31.5947 2.23951C31.5961 2.24964 31.599 2.28024 31.6032 2.33388C31.6096 2.43915 31.616 2.59644 31.6203 2.80842C31.6289 3.23037 31.631 3.8351 31.6267 4.59889C31.6182 6.13674 31.5881 8.2932 31.5415 10.8332C31.4449 16.1123 31.2813 23.034 31.1199 29.4506C30.9059 37.9556 30.679 46.2279 30.5643 50.3643C30.4999 52.6797 30.3328 58.6306 30.3971 56.3152L31.56 56.3083Z" fill="#F36A26"/>
<path d="M111.586 42.5631C111.586 42.6813 111.556 42.7878 111.496 42.8826C111.436 42.9654 111.336 43.0364 111.196 43.0956C111.056 43.1549 110.861 43.1963 110.611 43.2199C110.371 43.2555 110.072 43.2733 109.712 43.2733C109.342 43.2733 109.032 43.2555 108.782 43.2199C108.542 43.1963 108.353 43.1549 108.213 43.0956C108.073 43.0364 107.973 42.9654 107.913 42.8826C107.853 42.788 107.823 42.6815 107.823 42.5631V33.5279C107.823 32.7586 107.773 32.1551 107.673 31.7173C107.583 31.2794 107.448 30.9066 107.268 30.599C107.088 30.2794 106.853 30.0368 106.563 29.8712C106.284 29.6936 105.954 29.6049 105.574 29.6049C105.094 29.6049 104.609 29.812 104.12 30.2262C103.63 30.6404 103.12 31.2439 102.591 32.0368V42.5631C102.591 42.6813 102.561 42.7878 102.501 42.8826C102.441 42.9654 102.336 43.0364 102.186 43.0956C102.046 43.1549 101.856 43.1963 101.616 43.2199C101.376 43.2555 101.071 43.2733 100.702 43.2733C100.332 43.2733 100.027 43.2555 99.787 43.2199C99.5472 43.1963 99.3522 43.1549 99.2023 43.0956C99.0624 43.0364 98.9625 42.9654 98.9025 42.8826C98.8425 42.788 98.8125 42.6815 98.8125 42.5631V19.2206C98.8125 19.1022 98.8425 18.9957 98.9025 18.9011C98.9625 18.8065 99.0624 18.7295 99.2023 18.6703C99.3522 18.5993 99.5472 18.5461 99.787 18.5106C100.027 18.4752 100.332 18.4575 100.702 18.4575C101.071 18.4575 101.376 18.4752 101.616 18.5106C101.856 18.5462 102.046 18.5995 102.186 18.6703C102.336 18.7295 102.441 18.8065 102.501 18.9011C102.561 18.9957 102.591 19.1022 102.591 19.2206V27.9718C103.24 27.2144 103.9 26.6524 104.569 26.2855C105.249 25.9068 105.954 25.7175 106.683 25.7175C107.593 25.7175 108.357 25.895 108.977 26.25C109.607 26.605 110.111 27.0902 110.491 27.7056C110.881 28.3209 111.161 29.0428 111.331 29.8712C111.501 30.6877 111.586 31.6818 111.586 32.8533L111.586 42.5631ZM119.756 42.5631C119.756 42.6813 119.726 42.7878 119.666 42.8826C119.606 42.9654 119.501 43.0364 119.351 43.0956C119.211 43.1549 119.021 43.1963 118.782 43.2199C118.542 43.2555 118.237 43.2733 117.867 43.2733C117.497 43.2733 117.192 43.2555 116.953 43.2199C116.713 43.1963 116.518 43.1549 116.368 43.0956C116.228 43.0364 116.128 42.9654 116.068 42.8826C116.008 42.788 115.978 42.6815 115.978 42.5631V26.7648C115.978 26.6463 116.008 26.5457 116.068 26.463C116.128 26.3684 116.228 26.2914 116.368 26.2322C116.518 26.1612 116.713 26.108 116.953 26.0726C117.192 26.0371 117.497 26.0194 117.867 26.0194C118.237 26.0194 118.542 26.0371 118.782 26.0726C119.021 26.108 119.211 26.1612 119.351 26.2322C119.501 26.2914 119.606 26.3684 119.666 26.463C119.726 26.5458 119.756 26.6464 119.756 26.7648V42.5631ZM120.041 21.3685C120.041 22.2679 119.886 22.8892 119.576 23.2323C119.266 23.5755 118.692 23.7471 117.852 23.7471C117.003 23.7471 116.428 23.5814 116.128 23.2501C115.838 22.9187 115.693 22.3211 115.693 21.4572C115.693 20.5579 115.843 19.9366 116.143 19.5934C116.453 19.2384 117.032 19.0609 117.882 19.0609C118.722 19.0609 119.291 19.2325 119.591 19.5756C119.891 19.907 120.041 20.5046 120.041 21.3685ZM127.986 42.5631C127.986 42.6813 127.956 42.7878 127.896 42.8826C127.836 42.9654 127.731 43.0364 127.581 43.0956C127.442 43.1549 127.252 43.1963 127.012 43.2199C126.772 43.2555 126.467 43.2733 126.097 43.2733C125.727 43.2733 125.423 43.2555 125.183 43.2199C124.943 43.1963 124.748 43.1549 124.598 43.0956C124.458 43.0364 124.358 42.9654 124.298 42.8826C124.238 42.788 124.208 42.6815 124.208 42.5631V19.2206C124.208 19.1022 124.238 18.9957 124.298 18.9011C124.358 18.8065 124.458 18.7295 124.598 18.6703C124.748 18.5993 124.943 18.5461 125.183 18.5106C125.423 18.4752 125.727 18.4575 126.097 18.4575C126.467 18.4575 126.772 18.4752 127.012 18.5106C127.252 18.5462 127.441 18.5995 127.581 18.6703C127.731 18.7295 127.836 18.8065 127.896 18.9011C127.956 18.9957 127.986 19.1022 127.986 19.2206V42.5631ZM145.901 34.4154C145.901 35.8236 145.771 37.0958 145.511 38.2318C145.262 39.3561 144.892 40.3146 144.402 41.1075C143.912 41.9004 143.303 42.5098 142.573 42.9358C141.843 43.3619 141.009 43.5749 140.069 43.5749C139.68 43.5749 139.32 43.5276 138.99 43.4329C138.67 43.3501 138.355 43.2199 138.045 43.0424C137.746 42.8531 137.446 42.6223 137.146 42.3501C136.846 42.078 136.536 41.7584 136.216 41.3916V48.847C136.216 48.9654 136.186 49.0719 136.126 49.1665C136.066 49.2611 135.961 49.338 135.812 49.3972C135.672 49.4683 135.482 49.5215 135.242 49.5569C135.002 49.5924 134.697 49.6101 134.327 49.6101C133.958 49.6101 133.653 49.5924 133.413 49.5569C133.173 49.5215 132.978 49.4683 132.828 49.3972C132.688 49.338 132.588 49.2611 132.528 49.1665C132.468 49.0719 132.438 48.9653 132.438 48.847V26.7293C132.438 26.611 132.463 26.5105 132.513 26.4276C132.563 26.3329 132.648 26.256 132.768 26.1968C132.898 26.1376 133.063 26.0961 133.263 26.0725C133.473 26.0371 133.733 26.0194 134.043 26.0194C134.342 26.0194 134.592 26.0371 134.792 26.0725C135.002 26.0961 135.167 26.1376 135.287 26.1968C135.417 26.256 135.507 26.3329 135.557 26.4276C135.607 26.5104 135.632 26.611 135.632 26.7293V28.5932C136.022 28.1198 136.401 27.7056 136.771 27.3506C137.151 26.9837 137.536 26.682 137.926 26.4453C138.315 26.1968 138.715 26.0134 139.125 25.895C139.545 25.7766 139.989 25.7174 140.459 25.7174C141.439 25.7174 142.273 25.9482 142.963 26.4097C143.652 26.8594 144.212 27.4806 144.642 28.2735C145.082 29.0664 145.402 29.9894 145.601 31.0426C145.801 32.0959 145.901 33.2202 145.901 34.4154ZM141.973 34.7349C141.973 34.0604 141.928 33.4154 141.838 32.8001C141.758 32.1729 141.614 31.6167 141.404 31.1315C141.204 30.6463 140.934 30.2617 140.594 29.9777C140.264 29.6818 139.85 29.5339 139.35 29.5339C139.1 29.5339 138.85 29.5812 138.6 29.6759C138.36 29.7587 138.11 29.9007 137.851 30.1019C137.601 30.3031 137.341 30.5634 137.071 30.8829C136.801 31.2024 136.516 31.5989 136.216 32.0723V37.291C136.746 38.0839 137.251 38.6992 137.731 39.1371C138.21 39.5631 138.71 39.7761 139.23 39.7761C139.72 39.7761 140.134 39.6282 140.474 39.3324C140.824 39.0365 141.109 38.6519 141.329 38.1785C141.549 37.6934 141.709 37.149 141.808 36.5455C141.918 35.9419 141.973 35.3385 141.973 34.7349Z" fill="#F36A26"/>
<path fill-rule="evenodd" clip-rule="evenodd" d="M45.4214 27.2508H40.3274C39.9355 27.2508 35.6252 29.5706 38.76 33.7463C38.3681 34.3649 37.5843 35.6949 37.5843 36.0661C37.5843 36.1186 37.5492 36.2246 37.4976 36.38C37.0939 37.598 35.6839 41.8522 42.2865 47.2012L44.6375 44.4174L41.1109 40.7057C40.5884 40.0871 39.9353 38.3859 41.5027 36.53H45.4212C45.813 36.8394 46.3616 37.6436 45.4212 38.3859L45.813 43.0255C47.2498 42.4069 50.2017 40.4273 50.5152 37.458C50.9071 33.7463 47.3804 31.4265 43.462 32.3544H40.719C40.3272 31.8904 39.7786 30.7769 40.719 30.0346H48.9478V25.395H56.7848V28.6427H53.2582C52.9969 28.7974 52.4745 29.385 52.4745 30.4986C52.4745 31.6121 57.4379 38.6952 59.9196 42.0976L62.6625 39.7778L58.3522 34.2102H64.6217V36.53L68.5402 42.5615L72.0669 39.3138L68.1484 34.2102L69.7158 32.3544H74.4179V42.0976H78.7283V25.395H81.0794V20.7554H35.625V25.395H45.4214V27.2508ZM60.7043 25.3945H74.8109V28.1783H70.8924H66.9739L65.4065 30.4981H60.3125V25.3945H60.7043Z" fill="#0164CF"/>
<path d="M98.0733 17.4348C98.0258 17.293 97.9572 16.7487 97.4688 16.1718C97.3341 16.0129 97.1525 15.829 96.9215 15.6454C96.5033 15.3131 95.8819 14.9506 95.0921 14.8004C94.5012 14.6881 93.817 14.6967 93.0966 14.9098C92.4912 15.0889 91.8547 15.4161 91.2706 15.9343C90.7496 16.3966 90.2798 17.0035 89.9153 17.7351C89.5823 18.4036 89.3356 19.1812 89.2356 20.0248C89.1422 20.8134 89.1794 21.6441 89.3575 22.4589C89.5255 23.2281 89.8207 23.9882 90.2513 24.6656C90.5497 25.1377 90.9196 25.5771 91.3534 25.9381C91.7706 26.2854 92.2532 26.5649 92.7874 26.7201C93.2947 26.8707 93.8546 26.9091 94.4157 26.7826C94.9505 26.6621 95.4838 26.3906 95.9387 25.9573C96.4701 25.451 96.8667 24.7468 97.0616 23.9594C97.252 23.19 97.2465 22.3575 97.0509 21.5867C96.8577 20.8259 96.4832 20.1383 95.987 19.6106C95.493 19.0851 94.8862 18.7251 94.2472 18.5594C93.8983 18.4685 93.5564 18.4389 93.2378 18.4344C92.9216 18.4293 92.6063 18.4496 92.3282 18.4668C91.572 18.5105 90.7413 18.5455 89.9218 18.7526C89.1079 18.9586 88.3251 19.3306 87.6351 19.8742C86.921 20.4366 86.3171 21.1774 85.8949 22.0408C85.4517 22.9472 85.2194 23.9732 85.2337 24.985C85.2486 26.039 85.5326 27.0509 86.0233 27.8602C86.0361 27.8829 86.0506 27.905 86.0645 27.927C86.3183 28.3305 86.6232 28.6823 86.9626 28.9847C87.2888 29.2754 87.6458 29.5196 88.0178 29.72C88.7281 30.1027 89.4758 30.3238 90.2175 30.4971C90.9287 30.6601 91.6339 30.783 92.2901 30.9648C92.9367 31.144 93.5242 31.3763 94.0409 31.7431C94.6672 32.1909 95.1985 32.8568 95.55 33.6497C95.8935 34.4245 96.0652 35.3184 96.0403 36.2132C96.0157 37.0961 95.8004 37.9783 95.4233 38.755C95.0479 39.5284 94.5135 40.1967 93.8828 40.6945C93.3763 41.0972 92.8055 41.3897 92.2031 41.5697C91.5979 41.7504 90.9657 41.8164 90.3429 41.7691C89.3567 41.6929 88.4071 41.3411 87.6152 40.7405C86.8044 40.1256 86.1664 39.2496 85.8109 38.2641C85.4424 37.2426 85.3836 36.107 85.6292 35.1192C85.7553 34.6125 85.9649 34.1386 86.2351 33.7318C86.5129 33.3134 86.8491 32.9738 87.2184 32.7337C87.6741 32.438 88.1942 32.2881 88.7196 32.2761C89.2664 32.2634 89.8042 32.4 90.2759 32.6575C91.1126 33.1119 91.7674 33.9234 92.1725 34.8169C92.6402 35.8486 92.7944 36.9944 92.7577 38.0162C92.6987 39.211 92.3767 40.3169 91.9409 41.276C91.4252 42.4112 90.7444 43.3577 90.0848 44.0892C89.7151 44.5731 89.4397 44.9142 89.2902 45.1747C89.0976 45.5101 89.1166 45.7991 89.0773 45.924C89.1829 45.9342 89.4131 46.0802 89.7592 45.9648C90.0206 45.8777 90.4336 45.6371 90.9258 45.2227C91.7066 44.4557 92.5356 43.4165 93.1865 42.1107C93.7359 41.0083 94.1812 39.666 94.2924 38.1514C94.4004 36.8666 94.264 35.3453 93.6616 33.9111C93.1398 32.6688 92.2463 31.4809 91.0202 30.7855C90.3108 30.3845 89.5099 30.1716 88.695 30.1814C87.9122 30.1915 87.1031 30.4069 86.3667 30.8783C85.7731 31.2579 85.2511 31.7859 84.829 32.4174C84.419 33.0306 84.1005 33.7459 83.9081 34.5186C83.5378 36.0058 83.6395 37.6502 84.169 39.1003C84.6804 40.5007 85.573 41.6908 86.6685 42.5075C87.739 43.3056 88.9843 43.7411 90.2394 43.8231C91.0384 43.8762 91.8505 43.7844 92.632 43.5424C93.4109 43.3013 94.162 42.9103 94.8388 42.3614C95.6736 41.6811 96.3783 40.774 96.8713 39.7195C97.3665 38.6604 97.6419 37.4628 97.6586 36.2581C97.6757 35.0372 97.4257 33.8233 96.9387 32.7667C96.4403 31.6854 95.6998 30.7839 94.8235 30.1782C94.1119 29.6836 93.3517 29.4062 92.6293 29.2135C91.8867 29.0154 91.1638 28.8982 90.4974 28.7515C89.7971 28.6007 89.1791 28.4206 88.6222 28.1285C88.3356 27.9782 88.0721 27.7998 87.8402 27.5959C87.5994 27.3841 87.3966 27.1489 87.235 26.8931C87.2265 26.8779 87.2179 26.865 87.2089 26.8508C86.8959 26.3363 86.7042 25.6685 86.6967 24.9588C86.6903 24.278 86.8506 23.5633 87.1702 22.9213C87.4745 22.3101 87.9185 21.7686 88.4582 21.3525C88.9797 20.9505 89.5853 20.6673 90.2321 20.5123C90.9064 20.3504 91.6001 20.3271 92.3952 20.2909C92.6877 20.2782 92.9512 20.2656 93.2094 20.2732C93.4633 20.2808 93.6921 20.3081 93.9034 20.3668C94.2849 20.4731 94.6405 20.6944 94.9212 21.001C95.2033 21.3091 95.4108 21.7049 95.514 22.1263C95.6187 22.5535 95.6166 23.01 95.5138 23.4179C95.4084 23.8357 95.1963 24.2064 94.9247 24.4662C94.6915 24.6893 94.4062 24.8416 94.1081 24.9136C93.7954 24.9893 93.4677 24.9779 93.1567 24.8959C92.8338 24.8076 92.525 24.6401 92.2433 24.4147C91.9498 24.1798 91.6894 23.8852 91.4732 23.5595C91.1636 23.0896 90.9418 22.5514 90.8093 21.9958C90.6691 21.4078 90.6302 20.8087 90.6832 20.2429C90.7401 19.6367 90.9027 19.0617 91.1344 18.5546C91.3876 18.0004 91.7196 17.534 92.089 17.1715C92.5041 16.7643 92.9708 16.4832 93.4292 16.3084C93.9733 16.1009 94.5011 16.0431 94.9668 16.0764C95.5906 16.1209 96.1212 16.3282 96.5099 16.5246C96.7228 16.6321 96.905 16.7425 97.0495 16.8318C97.6202 17.1852 97.9094 17.3028 98.0733 17.4348Z" fill="#F36A26"/>
</svg>
