<svg width="27" height="27" viewBox="0 0 27 27" fill="none" xmlns="http://www.w3.org/2000/svg">
<path d="M21.6985 22.936C20.4568 19.6147 17.2545 17.25 13.5 17.25C9.74547 17.25 6.54325 19.6147 5.30146 22.936M21.6985 22.936C24.3339 20.6443 26 17.2667 26 13.5C26 6.59644 20.4036 1 13.5 1C6.59644 1 1 6.59644 1 13.5C1 17.2667 2.66606 20.6443 5.30146 22.936M21.6985 22.936C19.5038 24.8445 16.6368 26 13.5 26C10.3632 26 7.49617 24.8445 5.30146 22.936M17.25 9.75C17.25 11.8211 15.5711 13.5 13.5 13.5C11.4289 13.5 9.75 11.8211 9.75 9.75C9.75 7.67893 11.4289 6 13.5 6C15.5711 6 17.25 7.67893 17.25 9.75Z" stroke="black" stroke-width="1.5" stroke-linejoin="round"/>
</svg>
