<svg width="25" height="23" viewBox="0 0 25 23" fill="none" xmlns="http://www.w3.org/2000/svg">
<path d="M11.1924 20.7329L11.1913 20.7319C7.95781 17.7998 5.33429 15.4162 3.51039 13.1847C1.69472 10.9634 0.75 8.98468 0.75 6.875C0.75 3.42761 3.43832 0.75 6.875 0.75C8.82327 0.75 10.7056 1.66084 11.9309 3.08846L12.5 3.75157L13.0691 3.08846C14.2944 1.66084 16.1767 0.75 18.125 0.75C21.5617 0.75 24.25 3.42761 24.25 6.875C24.25 8.98468 23.3053 10.9634 21.4896 13.1847C19.6657 15.4162 17.0422 17.7998 13.8087 20.7319L13.8076 20.7329L12.5 21.9233L11.1924 20.7329Z" stroke="black" stroke-width="1.5"/>
</svg>
